<?xml version="1.0" encoding="UTF-8"?>
<svg id="_1" xmlns="http://www.w3.org/2000/svg" version="1.1" viewBox="0 0 416 72">
  <!-- Generator: Adobe Illustrator 29.7.1, SVG Export Plug-In . SVG Version: 2.1.1 Build 8)  -->
  <defs>
    <style>
      .st0 {
        fill: #1c2b39;
      }

      .st1 {
        fill: #ed5f1e;
      }
    </style>
  </defs>
  <path class="st1" d="M86.4,26.3L54.5,3s0,0,0,0c-3.8-2.6-8.8-2.6-12.6,0,0,0,0,0,0,0L9.8,26.3c-1.4,1-1.7,2.9-.7,4.3s2.9,1.7,4.3.7l3.1-2.3v27.5c0,8,6.5,14.5,14.5,14.5h34.1c8,0,14.5-6.5,14.5-14.5v-27.5l3.1,2.3c.5.4,1.2.6,1.8.6,1,0,1.9-.4,2.5-1.3,1-1.4.7-3.3-.7-4.3h0ZM73.5,24.8v31.7c0,4.6-3.7,8.3-8.3,8.3H31c-4.6,0-8.3-3.7-8.3-8.3V24.5L45.3,8c1.7-1.1,3.9-1.1,5.5,0l22.6,16.5v.3h0Z"/>
  <path class="st1" d="M48,47.5c-5.1,0-10-1.4-14.4-4-1.5-.9-3.3-.4-4.2,1-.9,1.5-.4,3.3,1,4.2,5.4,3.2,11.4,4.9,17.5,4.9s12.2-1.6,17.7-4.9c1.5-.9,1.9-2.7,1.1-4.2s-2.7-1.9-4.2-1.1c-4.4,2.6-9.4,4-14.5,4h0Z"/>
  <path class="st0" d="M137,27.5c-2.2-1.4-4.8-2.2-7.7-2.2s-2.7.2-4,.7-2.5,1.1-3.5,1.9c-1,.8-1.8,1.6-2.5,2.4,0,0-.1.2-.2.2v-14.6c0-.9-.3-1.6-.9-2.2-.6-.6-1.3-.9-2.2-.9s-1.7.3-2.2.9c-.6.6-.9,1.4-.9,2.2v39.9c0,.9.3,1.7.9,2.2.6.6,1.3.9,2.2.9s1.6-.3,2.2-.9c.6-.6.9-1.4.9-2.2v-1.5c.6.7,1.4,1.4,2.2,2.1,1.1.8,2.3,1.5,3.7,2,1.4.5,2.9.8,4.4.8,2.8,0,5.3-.7,7.5-2.2,2.2-1.5,4-3.5,5.3-6,1.3-2.6,2-5.5,2-8.8s-.7-6.2-2-8.7c-1.3-2.5-3.1-4.5-5.3-6h0ZM137.1,48c-.8,1.7-2,3.1-3.4,4.1-1.4,1-3.1,1.5-5.1,1.5s-3.7-.5-5.2-1.5c-1.5-1-2.6-2.3-3.4-4-.8-1.7-1.2-3.6-1.2-5.8s.4-4,1.2-5.7,2-3,3.4-3.9c1.5-1,3.2-1.5,5.2-1.5s3.6.5,5.1,1.5,2.6,2.3,3.4,3.9c.8,1.7,1.2,3.6,1.2,5.7s-.4,4-1.2,5.7Z"/>
  <path class="st0" d="M174.2,25.9c-.9,0-1.6.3-2.2.9-.6.6-.9,1.3-.9,2.2v16.7c0,1.6-.3,2.9-1,4.1-.7,1.2-1.6,2.1-2.7,2.7-1.1.7-2.5,1-4.1,1-2.3,0-4.1-.6-5.3-1.9s-1.8-3.2-1.8-6v-16.7c0-.9-.3-1.6-.9-2.2-.6-.6-1.3-.9-2.2-.9s-1.7.3-2.2.9c-.6.6-.9,1.3-.9,2.2v18.3c0,2.3.4,4.3,1.3,6.1s2.1,3.2,3.8,4.2c1.6,1,3.6,1.5,5.8,1.5s3.4-.2,4.8-.7,2.7-1.2,3.8-2.1c.6-.5,1.2-1.1,1.6-1.7v1.1c0,2.2-.4,4-1.1,5.4-.7,1.4-1.8,2.4-3.2,3.1-1.4.7-3.1,1-5.1,1s-2.8-.2-3.9-.7-2.1-.8-2.8-1.1c-.7-.3-1.5-.3-2.2,0-.7.4-1.2,1-1.5,2-.3.8-.2,1.5.2,2.2.4.7,1.1,1.2,2.1,1.7,1,.5,2.2.8,3.6,1.1,1.5.3,3,.4,4.4.4,2.9,0,5.5-.5,7.9-1.6,2.3-1.1,4.2-2.7,5.6-5,1.4-2.3,2.1-5.2,2.1-8.8v-26.6c0-.9-.3-1.6-.9-2.2-.6-.6-1.3-.9-2.2-.9h0Z"/>
  <path class="st0" d="M198.8,32.2c.8,0,1.5-.3,2.1-.8s.8-1.2.8-2-.3-1.5-.8-2.1c-.5-.5-1.2-.8-2.1-.8h-4.9v-4.9c0-.9-.3-1.6-.9-2.2-.6-.6-1.3-.9-2.2-.9s-1.6.3-2.2.9c-.6.6-.9,1.3-.9,2.2v4.9h-3.3c-.8,0-1.5.3-2.1.8s-.8,1.2-.8,2,.3,1.5.8,2.1c.5.5,1.2.8,2.1.8h3.3v18.3c0,2,.3,3.5.9,4.6s1.3,1.9,2.2,2.4c.9.5,1.8.8,2.7.9,1,.1,1.8.2,2.5.2,1.2,0,2.4-.3,3.5-.9s1.6-1.4,1.6-2.4-.2-1.4-.6-1.9-.9-.7-1.4-.7-.9,0-1.3.2c-.4.2-.7.2-1.2.2s-.9,0-1.3-.2-.8-.5-1-.9-.4-1.1-.4-1.8v-18h4.9,0Z"/>
  <path class="st0" d="M230.3,27.4c-1.6-1.2-3.8-1.8-6.6-1.8s-2.7.2-3.9.7-2.4,1.1-3.4,1.9c-1,.8-1.9,1.6-2.5,2.6-.1.2-.2.3-.3.5v-15.2c0-.9-.3-1.6-.9-2.2-.6-.6-1.3-.9-2.2-.9s-1.7.3-2.2.9c-.6.6-.9,1.3-.9,2.2v39.4c0,.9.3,1.7.9,2.2.6.6,1.3.9,2.2.9s1.6-.3,2.2-.9.9-1.3.9-2.2v-16.4c0-1.4.3-2.7,1-3.9.7-1.2,1.6-2.1,2.9-2.8s2.7-1.1,4.3-1.1,3.1.4,4,1.1c1,.7,1.6,1.7,2,2.8s.6,2.5.6,3.9v16.4c0,.9.3,1.7.9,2.2.6.6,1.3.9,2.2.9s1.6-.3,2.2-.9.9-1.3.9-2.2v-16.4c0-2.5-.3-4.7-1-6.8-.6-2.1-1.7-3.7-3.3-4.9h0Z"/>
  <path class="st0" d="M266.2,29.9c-1.4-1.4-3-2.5-4.9-3.3-1.8-.8-3.7-1.2-5.7-1.2s-5.1.7-7.5,2.1-4.3,3.4-5.7,5.9-2.2,5.7-2.2,9.3.7,6.1,2.1,8.6c1.4,2.5,3.3,4.4,5.8,5.9s5.5,2.1,8.9,2.1,4.2-.4,6.1-1.2,3.5-1.8,4.6-2.8c.9-.7,1.4-1.6,1.4-2.5s-.2-1.3-.7-1.8-1.1-.8-1.9-.8-1.2.2-1.8.5c-.5.4-1.1.8-1.8,1.3-.7.5-1.5.8-2.5,1.1-1,.3-2.2.5-3.7.5s-3.7-.5-5.3-1.4c-1.6-.9-2.9-2.2-3.8-3.9-.7-1.2-1.1-2.7-1.3-4.2h21.5c.8,0,1.5-.3,2.2-.8.6-.5,1-1.2,1-2,0-2.3-.5-4.3-1.3-6.3-.8-1.9-1.9-3.6-3.4-5h0ZM249.1,33.6c.9-.9,1.9-1.5,3-1.9,1.1-.4,2.3-.6,3.6-.6s2.7.3,4,.9c1.3.6,2.3,1.5,3.2,2.5.9,1.1,1.4,2.3,1.5,3.8v.4h-17.8c.1-.6.3-1.2.5-1.8.5-1.4,1.2-2.6,2.1-3.4h0Z"/>
  <path class="st0" d="M295.8,26.2c-.8-.6-1.7-.9-2.8-.9s-2.5.2-3.7.6c-1.2.4-2.2,1-3.2,1.7s-1.8,1.6-2.4,2.6c-.3.5-.6,1-.9,1.6v-2.6c0-.9-.3-1.6-.9-2.2-.6-.6-1.3-.9-2.2-.9s-1.7.3-2.2.9c-.6.6-.9,1.3-.9,2.2v26.2c0,.9.3,1.7.9,2.2.6.6,1.3.9,2.2.9s1.6-.3,2.2-.9.9-1.3.9-2.2v-14.8c0-1.5.2-2.8.6-4,.4-1.2,1-2.2,1.8-3.1.7-.9,1.6-1.6,2.5-2,.9-.5,1.8-.7,2.7-.7s1.5.1,2,.4,1.2.4,1.8.4,1.3-.3,1.9-.8c.6-.5.9-1.3.9-2.4s-.4-1.6-1.2-2.2h0Z"/>
  <path class="st0" d="M325.4,26.1c-.9,0-1.7.3-2.2.9-.6.6-.9,1.3-.9,2.2v16.2c0,2.7-.6,4.7-1.9,6-1.3,1.3-3.1,2-5.6,2s-4.3-.7-5.5-2c-1.3-1.3-1.9-3.3-1.9-6v-16.2c0-.9-.3-1.6-.9-2.2-.6-.6-1.3-.9-2.2-.9s-1.7.3-2.2.9-.9,1.3-.9,2.2v16.2c0,4.3,1.2,7.6,3.6,10,2.4,2.4,5.7,3.6,10.1,3.6s7.7-1.2,10.1-3.6c2.4-2.4,3.6-5.8,3.6-10v-16.2c0-.9-.3-1.6-.9-2.2-.6-.6-1.3-.9-2.2-.9h0Z"/>
  <path class="st0" d="M339.5,12.9c-.9,0-1.6.3-2.2.9-.6.6-.9,1.3-.9,2.2v39.4c0,.9.3,1.7.9,2.2.6.6,1.3.9,2.2.9s1.6-.3,2.2-.9c.6-.6.9-1.3.9-2.2V16c0-.9-.3-1.6-.8-2.2-.5-.6-1.3-.9-2.2-.9h0Z"/>
  <path class="st0" d="M374.2,29.9c-1.4-1.4-3-2.5-4.9-3.3-1.8-.8-3.7-1.2-5.7-1.2s-5.1.7-7.5,2.1-4.3,3.4-5.7,5.9c-1.5,2.6-2.2,5.7-2.2,9.3s.7,6.1,2.1,8.6c1.4,2.5,3.3,4.4,5.8,5.9s5.5,2.1,8.9,2.1,4.2-.4,6.1-1.2c2-.8,3.5-1.8,4.6-2.8.9-.7,1.4-1.6,1.4-2.5s-.2-1.3-.7-1.8-1.1-.8-1.9-.8-1.2.2-1.8.5c-.5.4-1.1.8-1.8,1.3s-1.5.8-2.5,1.1c-1,.3-2.2.5-3.7.5s-3.7-.5-5.3-1.4c-1.6-.9-2.9-2.2-3.8-3.9-.7-1.2-1.1-2.7-1.3-4.2h21.5c.8,0,1.6-.3,2.2-.8.6-.5,1-1.2,1-2,0-2.3-.5-4.3-1.3-6.3-.8-1.9-1.9-3.6-3.4-5h0ZM357,33.6c.9-.9,1.9-1.5,3-1.9,1.1-.4,2.3-.6,3.6-.6s2.7.3,4,.9c1.3.6,2.3,1.5,3.2,2.5.9,1.1,1.4,2.3,1.5,3.8v.4h-17.8c.1-.6.3-1.2.5-1.8.5-1.4,1.2-2.6,2.1-3.4h0Z"/>
  <path class="st0" d="M406.5,45.4c-.6-1.1-1.5-2.1-2.5-2.8-1-.7-2.1-1.3-3.4-1.8-1.3-.5-2.5-.8-3.8-1.2-1.3-.3-2.5-.7-3.6-1.1-1.1-.4-2-.9-2.7-1.5s-1-1.4-1-2.5.3-2,.9-2.5c.6-.6,1.3-1,2.1-1.2s1.6-.3,2.4-.3c1.6,0,3,.3,4.2.8,1.2.5,2.2,1.3,3,2.3.5.4,1,.6,1.7.7s1.3-.1,1.8-.5c.7-.6,1.1-1.3,1-2s-.3-1.4-.7-1.9c-.9-1.1-2-1.9-3.2-2.6-1.2-.7-2.5-1.1-3.8-1.5s-2.6-.5-3.8-.5c-2,0-3.9.4-5.7,1.2-1.8.8-3.2,1.9-4.3,3.3-1.1,1.4-1.6,3.1-1.6,5s.3,3.1,1,4.3c.7,1.1,1.5,2.1,2.6,2.8s2.3,1.3,3.6,1.8c1.3.5,2.6.9,3.9,1.2,1.3.3,2.4.7,3.5,1.1,1.1.4,1.9.9,2.6,1.5.7.6,1,1.4,1,2.4s-.3,2-.9,2.6-1.4,1-2.2,1.2c-.9.2-1.7.4-2.5.4-2,0-3.7-.4-5.2-1.1s-2.7-1.7-3.9-3c-.6-.6-1.2-.9-1.8-1s-1.2,0-1.8.5c-.8.5-1.3,1.2-1.3,1.9,0,.8.1,1.4.5,2,1.6,2.1,3.6,3.6,5.9,4.4,2.3.8,4.7,1.3,7,1.3s3.9-.4,5.7-1.1c1.8-.7,3.3-1.8,4.4-3.2,1.2-1.4,1.8-3.1,1.8-5.2s-.3-3.2-1-4.3h0Z"/>
</svg>