<?xml version="1.0" encoding="UTF-8"?>
<svg version="1.1" xmlns="http://www.w3.org/2000/svg" width="416" height="72">
<path d="M0 0 C137.28 0 274.56 0 416 0 C416 23.76 416 47.52 416 72 C278.72 72 141.44 72 0 72 C0 48.24 0 24.48 0 0 Z " fill="#000001" transform="translate(0,0)"/>
<path d="M0 0 C7.115625 -0.0825 14.23125 -0.165 21.5625 -0.25 C24.91257202 -0.30462402 24.91257202 -0.30462402 28.33032227 -0.36035156 C30.11734051 -0.3720433 31.90436946 -0.38223397 33.69140625 -0.390625 C35.06274719 -0.4213208 35.06274719 -0.4213208 36.46179199 -0.45263672 C42.56983912 -0.45594507 45.96554534 0.5133946 51 4 C51.73943848 4.49653076 52.47887695 4.99306152 53.24072266 5.50463867 C53.8754248 5.9710376 54.51012695 6.43743652 55.1640625 6.91796875 C55.88803223 7.44583984 56.61200195 7.97371094 57.35791016 8.51757812 C58.1060498 9.06865234 58.85418945 9.61972656 59.625 10.1875 C66.25300252 15.06171163 66.25300252 15.06171163 73.0625 19.67578125 C73.66884277 20.07321533 74.27518555 20.47064941 74.89990234 20.88012695 C76.52145138 21.93277986 78.15489512 22.96704482 79.7890625 24 C82 26 82 26 82.3359375 28.75 C82.22507812 29.4925 82.11421875 30.235 82 31 C80.1875 31.625 80.1875 31.625 78 32 C77.01 31.34 76.02 30.68 75 30 C74.9906543 30.90242432 74.98130859 31.80484863 74.97167969 32.73461914 C74.9274416 36.11037578 74.86573136 39.48490286 74.79248047 42.86010742 C74.76440414 44.3157196 74.74312368 45.77148046 74.72900391 47.22729492 C74.56961347 62.73598448 74.56961347 62.73598448 70 68 C63.40264607 73.16113139 56.60926967 72.51864165 48.53515625 72.390625 C46.6880304 72.38458252 46.6880304 72.38458252 44.80358887 72.37841797 C40.22307338 72.35755965 35.64277104 72.3017144 31.0625 72.25 C20.811875 72.1675 10.56125 72.085 0 72 C0 48.24 0 24.48 0 0 Z " fill="#030101" transform="translate(0,0)"/>
<path d="M0 0 C7.115625 -0.0825 14.23125 -0.165 21.5625 -0.25 C24.91257202 -0.30462402 24.91257202 -0.30462402 28.33032227 -0.36035156 C30.11734051 -0.3720433 31.90436946 -0.38223397 33.69140625 -0.390625 C35.06274719 -0.4213208 35.06274719 -0.4213208 36.46179199 -0.45263672 C42.56983912 -0.45594507 45.96554534 0.5133946 51 4 C51.73943848 4.49653076 52.47887695 4.99306152 53.24072266 5.50463867 C53.8754248 5.9710376 54.51012695 6.43743652 55.1640625 6.91796875 C55.88803223 7.44583984 56.61200195 7.97371094 57.35791016 8.51757812 C58.1060498 9.06865234 58.85418945 9.61972656 59.625 10.1875 C66.25300252 15.06171163 66.25300252 15.06171163 73.0625 19.67578125 C73.66884277 20.07321533 74.27518555 20.47064941 74.89990234 20.88012695 C76.52145138 21.93277986 78.15489512 22.96704482 79.7890625 24 C82 26 82 26 82.3359375 28.75 C82.22507812 29.4925 82.11421875 30.235 82 31 C80.1875 31.625 80.1875 31.625 78 32 C77.01 31.34 76.02 30.68 75 30 C74.9906543 30.90242432 74.98130859 31.80484863 74.97167969 32.73461914 C74.9274416 36.11037578 74.86573136 39.48490286 74.79248047 42.86010742 C74.76440414 44.3157196 74.74312368 45.77148046 74.72900391 47.22729492 C74.56961347 62.73598448 74.56961347 62.73598448 70 68 C63.40264607 73.16113139 56.60926967 72.51864165 48.53515625 72.390625 C46.6880304 72.38458252 46.6880304 72.38458252 44.80358887 72.37841797 C40.22307338 72.35755965 35.64277104 72.3017144 31.0625 72.25 C20.811875 72.1675 10.56125 72.085 0 72 C0 48.24 0 24.48 0 0 Z M36.5234375 8.16015625 C35.85183594 8.62486328 35.18023437 9.08957031 34.48828125 9.56835938 C33.79089844 10.06142578 33.09351562 10.55449219 32.375 11.0625 C31.70082031 11.52849609 31.02664062 11.99449219 30.33203125 12.47460938 C28.93597042 13.44814326 27.55587374 14.44490068 26.19116211 15.46191406 C24 17 24 17 21.49829102 18.29589844 C18.62400654 19.97372401 16.93869482 21.27441371 15 24 C13.9409867 29.26334953 13.91119805 34.28442956 14.10131836 39.63427734 C14.18755242 42.12651495 14.20382724 44.61187306 14.20898438 47.10546875 C14.23289681 48.6979832 14.26075656 50.29044431 14.29296875 51.8828125 C14.3005571 52.62250275 14.30814545 53.36219299 14.31596375 54.1242981 C14.51639733 58.98940296 15.53527194 61.57795603 19 65 C22.34051377 66.67025689 26.09527764 66.18473139 29.76953125 66.203125 C30.64268478 66.20882507 31.51583832 66.21452515 32.41545105 66.22039795 C34.26564317 66.22985345 36.11585218 66.23638411 37.96606445 66.24023438 C40.79082844 66.24992565 43.61486044 66.28093755 46.43945312 66.3125 C48.23697485 66.31903152 50.03450177 66.32428141 51.83203125 66.328125 C52.67490189 66.3404718 53.51777252 66.3528186 54.38618469 66.36553955 C59.07944985 66.34780025 62.20986348 66.0790068 66 63 C71.77008605 54.34487092 69.89443557 35.9599652 68.44317627 25.89569092 C67.35073229 21.2227509 64.49399039 18.59565233 60.5625 16.125 C58.40364505 14.9161462 56.25920642 13.85190294 53.98339844 12.88183594 C51.28660359 11.68281784 49.04422154 10.01166893 46.6875 8.25 C42.7368908 5.5489941 40.48184701 5.40144275 36.5234375 8.16015625 Z " fill="#DF6028" transform="translate(0,0)"/>
<path d="M0 0 C-0.33 1.32 -0.66 2.64 -1 4 C-1.66 4 -2.32 4 -3 4 C-3.09706112 10.11485027 -2.77040851 15.93303301 -2 22 C-1.38511719 21.89300781 -0.77023438 21.78601563 -0.13671875 21.67578125 C0.67152344 21.55589844 1.47976562 21.43601562 2.3125 21.3125 C3.11300781 21.18488281 3.91351563 21.05726562 4.73828125 20.92578125 C7 21 7 21 8.62890625 22.40625 C9.08136719 22.9321875 9.53382812 23.458125 10 24 C17.67070493 27.4700808 25.00782423 26.38635326 32.78125 23.8671875 C35.16245011 23.01189979 35.16245011 23.01189979 37.75 21.3125 C40.62382615 19.63610142 42.73076081 19.77191355 46 20 C46.10655578 13.55929529 45.96205088 7.37358711 45 1 C45.99 1.66 46.98 2.32 48 3 C48.31693324 5.70800786 48.44404729 8.18308423 48.43359375 10.89453125 C48.4388356 11.6789006 48.44407745 12.46326996 48.44947815 13.27140808 C48.45590774 14.9332867 48.45454923 16.59521078 48.44604492 18.25708008 C48.43756633 20.7926631 48.46622848 23.32596975 48.49804688 25.86132812 C48.49965983 27.47656183 48.49907954 29.0917995 48.49609375 30.70703125 C48.51294472 31.84009453 48.51294472 31.84009453 48.53013611 32.99604797 C48.48192707 36.66487758 48.11454942 38.81633561 46.15649414 41.95581055 C42.08694681 45.81342628 37.42522976 45.19194852 32.1328125 45.23828125 C31.26107391 45.246353 30.38933533 45.25442474 29.49118042 45.26274109 C27.64697246 45.27656662 25.80273908 45.28729562 23.95849609 45.29516602 C21.14241018 45.31239349 18.32749415 45.35629405 15.51171875 45.40039062 C13.71875862 45.41051678 11.92578853 45.41903312 10.1328125 45.42578125 C9.29307892 45.44328934 8.45334534 45.46079742 7.58816528 45.47883606 C3.52546697 45.46380551 1.50724048 45.32063757 -2.00830078 43.09838867 C-5.57253725 39.34322657 -5.17579925 35.97143679 -5.203125 31.03515625 C-5.20882507 30.24604355 -5.21452515 29.45693085 -5.22039795 28.64390564 C-5.22984925 26.97363629 -5.23638245 25.30334829 -5.24023438 23.63305664 C-5.24994869 21.07600488 -5.28097332 18.51975395 -5.3125 15.96289062 C-5.31902922 14.34115061 -5.32428001 12.71940485 -5.328125 11.09765625 C-5.3404718 10.33195816 -5.3528186 9.56626007 -5.36553955 8.77735901 C-5.34333259 3.49355562 -5.34333259 3.49355562 -3.60449219 0.99389648 C-2 0 -2 0 0 0 Z " fill="#080102" transform="translate(20,21)"/>
<path d="M0 0 C1.65 0 3.3 0 5 0 C6.53266582 3.06533164 6.10276471 6.26754272 6.0625 9.625 C6.05798828 10.33140625 6.05347656 11.0378125 6.04882812 11.765625 C6.03703875 13.51045275 6.01910324 15.255237 6 17 C6.66 17 7.32 17 8 17 C8.33 16.01 8.66 15.02 9 14 C11.87222958 12.09990966 14.16006829 11.74917217 17.5625 11.8125 C18.70912109 11.82216797 18.70912109 11.82216797 19.87890625 11.83203125 C22 12 22 12 25 13 C25 13.66 25 14.32 25 15 C25.598125 15.226875 26.19625 15.45375 26.8125 15.6875 C30.45320921 17.87192553 31.69198068 21.07594205 33 25 C33.812043 30.69458006 33.46839502 35.00260612 30.375 39.9375 C27.65955406 43.52848693 25.41067518 45.67679745 21 47 C14.53170139 47.71869985 11.37397504 46.58265003 6 43 C6 43.99 6 44.98 6 46 C4.34385343 46.38218767 2.67542976 46.71395102 1 47 C0 46 0 46 -0.12025452 44.13340759 C-0.11803391 43.31844315 -0.11581329 42.5034787 -0.11352539 41.66381836 C-0.11344986 40.7429393 -0.11337433 39.82206024 -0.11329651 38.87327576 C-0.10813522 37.87224319 -0.10297394 36.87121063 -0.09765625 35.83984375 C-0.0962413 34.82024063 -0.09482635 33.80063751 -0.09336853 32.75013733 C-0.08775097 29.47922893 -0.0751955 26.20838787 -0.0625 22.9375 C-0.05748726 20.72591244 -0.05292396 18.51432382 -0.04882812 16.30273438 C-0.03777584 10.86846643 -0.02102063 5.43423803 0 0 Z " fill="#1B2833" transform="translate(109,13)"/>
<path d="M0 0 C4.23301121 2.82200747 7.17159664 5.95228992 8.8125 10.875 C8.8125 13.185 8.8125 15.495 8.8125 17.875 C0.5625 17.875 -7.6875 17.875 -16.1875 17.875 C-15.04109658 24.50567058 -15.04109658 24.50567058 -12.34765625 26.296875 C-10.01876139 26.9201597 -8.0357151 27.14131618 -5.625 27.125 C-4.47837891 27.13273437 -4.47837891 27.13273437 -3.30859375 27.140625 C-0.88767238 26.9979561 -0.88767238 26.9979561 1.8125 24.875 C4.5 24.75 4.5 24.75 6.8125 24.875 C6.75 27.125 6.75 27.125 5.8125 29.875 C0.92809591 33.80375981 -3.31225833 34.57639883 -9.53515625 34.3203125 C-14.50242827 33.48633752 -17.34329452 31.08694884 -20.5 27.30078125 C-23.56648896 22.73299041 -24.00316344 18.25268806 -23.1875 12.875 C-22.39281976 10.35212961 -21.39867247 8.24889804 -20.1875 5.875 C-19.8575 5.215 -19.5275 4.555 -19.1875 3.875 C-18.5275 3.875 -17.8675 3.875 -17.1875 3.875 C-17.1875 3.215 -17.1875 2.555 -17.1875 1.875 C-11.23537414 -1.69627551 -6.4888473 -2.2901814 0 0 Z " fill="#1B2834" transform="translate(377.1875,26.125)"/>
<path d="M0 0 C3.98805282 1.35780009 6.64138566 3.59540946 9.4375 6.75 C11.44265353 10.92071935 11.38828967 13.41818184 11 18 C10 19 10 19 7.68334961 19.11352539 C6.68311768 19.10828857 5.68288574 19.10305176 4.65234375 19.09765625 C3.57275391 19.09443359 2.49316406 19.09121094 1.38085938 19.08789062 C0.24455078 19.07951172 -0.89175781 19.07113281 -2.0625 19.0625 C-3.20267578 19.05798828 -4.34285156 19.05347656 -5.51757812 19.04882812 C-8.34510351 19.03699747 -11.1725264 19.0205141 -14 19 C-12.27915266 23.53540415 -12.27915266 23.53540415 -9 27 C-5.98509443 28.00496852 -3.95818308 28.10335303 -0.8125 28.0625 C0.08855469 28.05347656 0.98960937 28.04445313 1.91796875 28.03515625 C2.94857422 28.01775391 2.94857422 28.01775391 4 28 C4.33 27.01 4.66 26.02 5 25 C6.65 25.33 8.3 25.66 10 26 C9.9375 28.25 9.9375 28.25 9 31 C4.16410996 34.88973764 -0.10674713 35.75328209 -6.27734375 35.515625 C-12.06642114 34.41927175 -15.58071461 30.90716474 -19 26.3125 C-20.79880846 20.35394697 -20.8460537 14.5381611 -18.875 8.625 C-13.85798218 1.60117505 -8.51037381 -0.99055171 0 0 Z " fill="#1C2835" transform="translate(262,25)"/>
<path d="M0 0 C0.00410889 0.68102783 0.00821777 1.36205566 0.01245117 2.0637207 C0.04533323 5.14753206 0.11596953 8.22935326 0.1875 11.3125 C0.19620117 12.9202832 0.19620117 12.9202832 0.20507812 14.56054688 C0.23408203 15.58857422 0.26308594 16.61660156 0.29296875 17.67578125 C0.3086792 18.62364502 0.32438965 19.57150879 0.34057617 20.5480957 C0.79172642 23.22581222 0.79172642 23.22581222 3.3840332 24.80151367 C6.31656211 26.14503065 7.8308538 26.65008127 11 26 C13.58061704 23.76410361 14.84602304 21.91914353 15.41430664 18.52685547 C15.61787029 15.57607425 15.7083726 12.64493732 15.75 9.6875 C15.77964844 8.66076172 15.80929688 7.63402344 15.83984375 6.57617188 C15.91032194 4.05070325 15.9631266 1.52614585 16 -1 C17.66611905 -1.042721 19.33382885 -1.04063832 21 -1 C22.9823427 0.9823427 22.1876434 4.86517593 22.203125 7.578125 C22.20882507 8.34171326 22.21452515 9.10530151 22.22039795 9.89202881 C22.22986408 11.51280323 22.23638831 13.13359703 22.24023438 14.75439453 C22.24990582 17.22593267 22.28089843 19.69662723 22.3125 22.16796875 C22.31903334 23.74218256 22.32428251 25.31640232 22.328125 26.890625 C22.3404718 27.62726379 22.3528186 28.36390259 22.36553955 29.12286377 C22.34640408 33.5678146 21.8179743 36.49940015 19 40 C18.34 40 17.68 40 17 40 C17 40.66 17 41.32 17 42 C11.26609298 44.86695351 6.22915978 46.39370038 -0.0625 44.3203125 C-1.73710027 43.61130836 -3.37347661 42.8132617 -5 42 C-4.67 40.35 -4.34 38.7 -4 37 C-3.360625 37.165 -2.72125 37.33 -2.0625 37.5 C2.83485482 38.29956813 7.83601787 38.99876098 12.4375 36.875 C14.47032662 34.43560806 15.18820936 32.04421489 16 29 C14.5459375 30.0209375 14.5459375 30.0209375 13.0625 31.0625 C9.24331155 33.23161311 6.37859141 33.39073341 2.0859375 32.6875 C-1.18420325 31.6097008 -2.92014281 29.66481703 -5 27 C-6.3308911 24.33821779 -6.11268993 22.31260604 -6.09765625 19.3359375 C-6.09443359 18.21445312 -6.09121094 17.09296875 -6.08789062 15.9375 C-6.07951172 14.761875 -6.07113281 13.58625 -6.0625 12.375 C-6.05798828 11.19164062 -6.05347656 10.00828125 -6.04882812 8.7890625 C-6.03701467 5.85932493 -6.02054258 2.92968728 -6 0 C-3.50907189 -1.24546405 -2.58919267 -0.7767578 0 0 Z " fill="#1C2935" transform="translate(154,27)"/>
<path d="M0 0 C1.98 0 3.96 0 6 0 C6.33 5.28 6.66 10.56 7 16 C8.65 14.68 10.3 13.36 12 12 C17.17066246 11.34191569 20.68589482 12.05856465 25 15 C28.99709617 20.66569528 28.37564674 26.67285493 28.25 33.3125 C28.24484375 34.42173828 28.2396875 35.53097656 28.234375 36.67382812 C28.15430775 44.84569225 28.15430775 44.84569225 27 46 C24.5 46.125 24.5 46.125 22 46 C20.22509454 44.22509454 20.76500027 41.62215098 20.68359375 39.21484375 C20.64169922 38.04501953 20.59980469 36.87519531 20.55664062 35.66992188 C20.51732422 34.43822266 20.47800781 33.20652344 20.4375 31.9375 C20.39431641 30.70193359 20.35113281 29.46636719 20.30664062 28.19335938 C20.20015802 25.12902665 20.09814576 22.06460927 20 19 C18.58430936 18.91832554 17.16723195 18.86050302 15.75 18.8125 C14.96109375 18.77769531 14.1721875 18.74289063 13.359375 18.70703125 C10.36250744 19.07915884 9.0912924 19.82904212 7 22 C6.39221462 24.37151256 6.39221462 24.37151256 6.4609375 27.03515625 C6.42613281 28.49598633 6.42613281 28.49598633 6.390625 29.98632812 C6.38546875 31.00146484 6.3803125 32.01660156 6.375 33.0625 C6.34954975 35.07434262 6.31609465 37.08610491 6.2734375 39.09765625 C6.26747559 39.98976807 6.26151367 40.88187988 6.25537109 41.80102539 C6 44 6 44 4 46 C2.68 46 1.36 46 0 46 C-1.15007105 43.69985789 -1.12670485 42.39884232 -1.12939453 39.84155273 C-1.13254669 38.98403915 -1.13569885 38.12652557 -1.13894653 37.24302673 C-1.1369223 36.31591385 -1.13489807 35.38880096 -1.1328125 34.43359375 C-1.13376923 33.48436539 -1.13472595 32.53513702 -1.13571167 31.55714417 C-1.1363928 29.548919 -1.13454319 27.54069165 -1.13037109 25.5324707 C-1.12501601 22.44672745 -1.1303214 19.36112937 -1.13671875 16.27539062 C-1.13605807 14.32812468 -1.13477713 12.38085882 -1.1328125 10.43359375 C-1.13483673 9.50445663 -1.13686096 8.57531952 -1.13894653 7.61802673 C-1.13579437 6.76366531 -1.13264221 5.90930389 -1.12939453 5.02905273 C-1.12820114 3.89559669 -1.12820114 3.89559669 -1.12698364 2.73924255 C-1 1 -1 1 0 0 Z " fill="#1B2732" transform="translate(208,13)"/>
<path d="M0 0 C5.03445749 -0.61395823 7.76366795 0.56339842 11.65234375 3.5546875 C13 5 13 5 13.4375 7.8125 C13.293125 8.534375 13.14875 9.25625 13 10 C11.1875 10.625 11.1875 10.625 9 11 C8.01 10.34 7.02 9.68 6 9 C5.9906543 9.90242432 5.98130859 10.80484863 5.97167969 11.73461914 C5.9274416 15.11037578 5.86573136 18.48490286 5.79248047 21.86010742 C5.76440414 23.3157196 5.74312368 24.77148046 5.72900391 26.22729492 C5.56961347 41.73598448 5.56961347 41.73598448 1 47 C-4.77615382 51.10940762 -9.10924665 51.54996653 -16.08984375 51.390625 C-17.03436905 51.38496521 -17.97889435 51.37930542 -18.95204163 51.37347412 C-21.94772556 51.35121071 -24.94218195 51.30103331 -27.9375 51.25 C-29.97719618 51.22992202 -32.01691124 51.21167353 -34.05664062 51.1953125 C-39.03822826 51.15137883 -44.01890652 51.0824212 -49 51 C-49 50.01 -49 49.02 -49 48 C-49.66 48 -50.32 48 -51 48 C-51 47.34 -51 46.68 -51 46 C-49.68805664 45.98018066 -48.37611328 45.96036133 -47.02441406 45.93994141 C-42.15638045 45.8638625 -37.28864484 45.77514836 -32.42089844 45.68261719 C-30.31418746 45.64433694 -28.20741133 45.6094824 -26.10058594 45.578125 C-23.07202879 45.53245402 -20.04391978 45.47446255 -17.015625 45.4140625 C-15.60292328 45.39673569 -15.60292328 45.39673569 -14.16168213 45.37905884 C-13.28107117 45.35918915 -12.40046021 45.33931946 -11.49316406 45.31884766 C-10.72039124 45.30552399 -9.94761841 45.29220032 -9.15142822 45.2784729 C-6.68104666 44.95871586 -5.10220871 44.33093501 -3 43 C-0.43455792 39.15183689 -0.64945948 35.898212 -0.5859375 31.4296875 C-0.56657135 30.59285431 -0.5472052 29.75602112 -0.5272522 28.89382935 C-0.46748998 26.22098986 -0.42109633 23.5481067 -0.375 20.875 C-0.33681494 19.06638751 -0.2977629 17.2577931 -0.2578125 15.44921875 C-0.07689925 8.2252033 -0.07689925 8.2252033 0 1 C0 0.67 0 0.34 0 0 Z " fill="#E45F25" transform="translate(69,21)"/>
<path d="M0 0 C12.54 0 25.08 0 38 0 C35.03575258 2.37139793 32.13510963 4.6729126 29.06640625 6.8828125 C28.34122803 7.40593018 27.6160498 7.92904785 26.86889648 8.46801758 C26.10778564 9.01482178 25.3466748 9.56162598 24.5625 10.125 C23.77496338 10.69178467 22.98742676 11.25856934 22.17602539 11.8425293 C20.56605117 13.00063796 18.95561921 14.15811057 17.34472656 15.31494141 C15.14160214 16.89823637 12.94153603 18.48568505 10.7421875 20.07421875 C9.47409515 20.98716924 8.20587383 21.89994061 6.9375 22.8125 C6.05396851 23.45179443 6.05396851 23.45179443 5.15258789 24.10400391 C1.11432941 27 1.11432941 27 0 27 C0 18.09 0 9.18 0 0 Z " fill="#060101" transform="translate(0,0)"/>
<path d="M0 0 C1.98 0 3.96 0 6 0 C7.22433469 2.44866938 7.17270741 4.16629329 7.24609375 6.90234375 C7.27896484 7.87494141 7.31183594 8.84753906 7.34570312 9.84960938 C7.40678167 11.90418779 7.46408835 13.95888189 7.51757812 16.01367188 C7.56881836 17.47450195 7.56881836 17.47450195 7.62109375 18.96484375 C7.6461499 19.8580835 7.67120605 20.75132324 7.69702148 21.67163086 C7.86046896 24.27029249 7.86046896 24.27029249 10 27 C14.09391503 27.63553538 14.09391503 27.63553538 18 27 C22.07721431 22.57914804 21.51785179 16.92120146 21.625 11.25 C21.67577201 9.33843366 21.73025216 7.42696093 21.7890625 5.515625 C21.81540771 4.25153809 21.81540771 4.25153809 21.84228516 2.96191406 C22 1 22 1 23 0 C24.66617115 -0.04063832 26.33388095 -0.042721 28 0 C29.85184124 3.70368247 29.22795081 8.11115612 29.25 12.1875 C29.270625 13.12142578 29.29125 14.05535156 29.3125 15.01757812 C29.34512702 20.81295245 28.81211544 24.89801914 26 30 C22.3810377 33.52848824 19.40900022 34.29323504 14.5 34.5 C9.59971232 34.30691801 6.68771447 33.41113589 3 30 C0.27740182 26.22310013 -0.36419265 23.67252244 -0.29296875 19.04296875 C-0.28330078 17.93115234 -0.27363281 16.81933594 -0.26367188 15.67382812 C-0.23853516 14.52333984 -0.21339844 13.37285156 -0.1875 12.1875 C-0.17396484 11.01767578 -0.16042969 9.84785156 -0.14648438 8.64257812 C-0.11120278 5.761248 -0.0619028 2.88086096 0 0 Z " fill="#1B2731" transform="translate(305,26)"/>
<path d="M0 0 C4.63343746 0.02607939 7.38480392 1.77736928 11.1875 4.3125 C11.1875 5.9625 11.1875 7.6125 11.1875 9.3125 C9.5375 9.3125 7.8875 9.3125 6.1875 9.3125 C6.1875 8.6525 6.1875 7.9925 6.1875 7.3125 C2.2275 7.3125 -1.7325 7.3125 -5.8125 7.3125 C-5.4825 8.9625 -5.1525 10.6125 -4.8125 12.3125 C-4.255625 12.45945312 -3.69875 12.60640625 -3.125 12.7578125 C2.62259781 14.44714023 8.37026507 16.47036364 12.1875 21.3125 C12.97962911 24.68947146 12.57018104 27.1520862 11.1875 30.3125 C8.62751656 33.6236163 5.8150395 35.04808901 1.7109375 35.71484375 C-3.53199872 35.91283983 -7.29109946 35.1681214 -11.8125 32.3125 C-11.8125 31.6525 -11.8125 30.9925 -11.8125 30.3125 C-12.4725 30.3125 -13.1325 30.3125 -13.8125 30.3125 C-13.8125 28.6625 -13.8125 27.0125 -13.8125 25.3125 C-11.8325 25.6425 -9.8525 25.9725 -7.8125 26.3125 C-7.8125 26.9725 -7.8125 27.6325 -7.8125 28.3125 C-3.8525 28.3125 0.1075 28.3125 4.1875 28.3125 C4.5175 26.6625 4.8475 25.0125 5.1875 23.3125 C4.46304687 23.07015625 3.73859375 22.8278125 2.9921875 22.578125 C-10.52217742 17.89314516 -10.52217742 17.89314516 -12.8125 13.3125 C-13.21246563 10.37941874 -13.34715611 8.23852438 -11.8359375 5.62109375 C-10.13490633 3.45567063 -8.50306342 1.64587544 -6 0.4375 C-3.99795619 0.3230975 -1.99860709 0.16382025 0 0 Z " fill="#1B2632" transform="translate(403.8125,24.6875)"/>
<path d="M0 0 C0.66 0 1.32 0 2 0 C2.01458252 0.97348389 2.02916504 1.94696777 2.04418945 2.94995117 C2.10233296 6.57515476 2.17956377 10.1997476 2.26245117 13.82446289 C2.29562532 15.39076801 2.32368058 16.95719051 2.34643555 18.52368164 C2.38012116 20.78061763 2.43244049 23.03648526 2.48828125 25.29296875 C2.49467117 25.98899704 2.5010611 26.68502533 2.50764465 27.40214539 C2.63791307 31.74772878 3.34532628 34.53726096 6 38 C8.49759982 39.69882448 8.49759982 39.69882448 11 41 C11.66 41.66 12.32 42.32 13 43 C6.4 43 -0.2 43 -7 43 C-7 29.14 -7 15.28 -7 1 C-4.525 1.495 -4.525 1.495 -2 2 C-1.34 1.34 -0.68 0.68 0 0 Z " fill="#030001" transform="translate(7,29)"/>
<path d="M0 0 C2.33944736 0.28730055 4.6739143 0.61936779 7 1 C7 3.31 7 5.62 7 8 C8.98 8 10.96 8 13 8 C13.38218767 9.65614657 13.71395102 11.32457024 14 13 C13.67 13.33 13.34 13.66 13 14 C10.69 14 8.38 14 6 14 C6 20.93 6 27.86 6 35 C8.31 35 10.62 35 13 35 C13 36.65 13 38.3 13 40 C9.88450128 41.55774936 6.3955612 41.56480622 3 41 C1.39501953 39.82592773 1.39501953 39.82592773 0 38 C-0.34057617 35.45629883 -0.34057617 35.45629883 -0.29296875 32.45703125 C-0.28330078 31.38388672 -0.27363281 30.31074219 -0.26367188 29.20507812 C-0.23853516 28.08552734 -0.21339844 26.96597656 -0.1875 25.8125 C-0.17396484 24.68134766 -0.16042969 23.55019531 -0.14648438 22.38476562 C-0.11109958 19.58936683 -0.06172948 16.79492108 0 14 C-1.98 14 -3.96 14 -6 14 C-6.38218767 12.34385343 -6.71395102 10.67542976 -7 9 C-6 8 -6 8 -3.4375 7.9375 C-2.2309375 7.9684375 -2.2309375 7.9684375 -1 8 C-1.020625 6.865625 -1.04125 5.73125 -1.0625 4.5625 C-1 1 -1 1 0 0 Z " fill="#1D2A36" transform="translate(187,18)"/>
<path d="M0 0 C5.57894737 3.15789474 5.57894737 3.15789474 7 6 C7.12176503 7.80948495 7.17545792 9.62396271 7.1875 11.4375 C7.20167969 12.40558594 7.21585938 13.37367187 7.23046875 14.37109375 C7 17 7 17 5 20 C4.34 20 3.68 20 3 20 C3 20.66 3 21.32 3 22 C-0.12706959 23.5635348 -3.57982443 23.39958487 -7 23 C-10.63029992 20.57980005 -11.80395183 18.06328692 -13 14 C-13.35322482 9.83194713 -13.57512807 6.43350409 -11 3 C-7.32520012 0.14182232 -4.61762526 -0.65966075 0 0 Z " fill="#010204" transform="translate(128,31)"/>
<path d="M0 0 C0.33 1.98 0.66 3.96 1 6 C0.31292969 6.03738281 -0.37414062 6.07476563 -1.08203125 6.11328125 C-2.43361328 6.21189453 -2.43361328 6.21189453 -3.8125 6.3125 C-5.15248047 6.39951172 -5.15248047 6.39951172 -6.51953125 6.48828125 C-9.35975538 7.07421725 -10.27512941 7.70924126 -12 10 C-12.9300889 12.7902667 -13.18698769 14.76529542 -13.31640625 17.66796875 C-13.35830078 18.56064453 -13.40019531 19.45332031 -13.44335938 20.37304688 C-13.50233398 21.76620117 -13.50233398 21.76620117 -13.5625 23.1875 C-13.60568359 24.12787109 -13.64886719 25.06824219 -13.69335938 26.03710938 C-13.79938665 28.35792854 -13.90145029 30.67885325 -14 33 C-15.65614657 33.38218767 -17.32457024 33.71395102 -19 34 C-20 33 -20 33 -20.11352539 30.04077148 C-20.10828857 28.74727783 -20.10305176 27.45378418 -20.09765625 26.12109375 C-20.0962413 25.4344313 -20.09482635 24.74776886 -20.09336853 24.04029846 C-20.08775479 21.83932199 -20.07520007 19.63844591 -20.0625 17.4375 C-20.05748676 15.94856917 -20.05292355 14.45963676 -20.04882812 12.97070312 C-20.03778093 9.31376925 -20.02050713 5.65689442 -20 2 C-18.35 1.67 -16.7 1.34 -15 1 C-14.34 1.99 -13.68 2.98 -13 4 C-12.401875 3.525625 -11.80375 3.05125 -11.1875 2.5625 C-7.46562388 -0.09598294 -4.44772667 -0.09883837 0 0 Z " fill="#1C2935" transform="translate(300,25)"/>
<path d="M0 0 C1.65 0 3.3 0 5 0 C6 1 6 1 6.12025452 2.82862854 C6.11803391 3.62582809 6.11581329 4.42302765 6.11352539 5.24438477 C6.11341209 6.59567223 6.11341209 6.59567223 6.11329651 7.97425842 C6.10813522 8.95341721 6.10297394 9.93257599 6.09765625 10.94140625 C6.0962413 11.93881332 6.09482635 12.9362204 6.09336853 13.96385193 C6.08775114 17.16343124 6.07519571 20.36294169 6.0625 23.5625 C6.05748724 25.72591045 6.05292395 27.88932199 6.04882812 30.05273438 C6.03777607 35.36851325 6.02102104 40.68425171 6 46 C4.02 46 2.04 46 0 46 C0 30.82 0 15.64 0 0 Z " fill="#1C2A36" transform="translate(342,13)"/>
<path d="M0 0 C3.42121538 1.81796801 5.72444202 3.49253488 6.9296875 7.2421875 C5.2796875 7.2421875 3.6296875 7.2421875 1.9296875 7.2421875 C2.2596875 9.2221875 2.5896875 11.2021875 2.9296875 13.2421875 C-3.3403125 13.2421875 -9.6103125 13.2421875 -16.0703125 13.2421875 C-16.0703125 11.2621875 -16.0703125 9.2821875 -16.0703125 7.2421875 C-16.7303125 6.9121875 -17.3903125 6.5821875 -18.0703125 6.2421875 C-18.3590625 7.3765625 -18.6478125 8.5109375 -18.9453125 9.6796875 C-19.3165625 10.8553125 -19.6878125 12.0309375 -20.0703125 13.2421875 C-21.0603125 13.7371875 -21.0603125 13.7371875 -22.0703125 14.2421875 C-21.78668551 8.42783416 -19.25335062 5.04316827 -15.0703125 1.2421875 C-10.4178709 -1.60201769 -5.11740211 -1.87316228 0 0 Z " fill="#1B2630" transform="translate(264.0703125,25.7578125)"/>
<path d="M0 0 C3.14125696 0.4908214 5.841435 1.32926844 8.75 2.5625 C16.06150282 5.34196643 22.38290009 4.20872497 29.640625 1.75390625 C32.07599976 0.97571531 34.48677518 0.45897545 37 0 C37.495 2.475 37.495 2.475 38 5 C31.43445927 10.99462414 22.95868859 11.53828828 14.45703125 11.36328125 C8.70565895 10.75889975 3.15591755 9.15591755 -1 5 C-0.625 2.375 -0.625 2.375 0 0 Z " fill="#CA5B2C" transform="translate(23,43)"/>
<path d="M0 0 C2.625 1.6875 2.625 1.6875 4.625 4.6875 C2.975 5.6775 1.325 6.6675 -0.375 7.6875 C0.285 8.0175 0.945 8.3475 1.625 8.6875 C1.625 10.0075 1.625 11.3275 1.625 12.6875 C-4.315 12.6875 -10.255 12.6875 -16.375 12.6875 C-16.705 10.3775 -17.035 8.0675 -17.375 5.6875 C-18.035 5.6875 -18.695 5.6875 -19.375 5.6875 C-19.375 5.0275 -19.375 4.3675 -19.375 3.6875 C-18.715 3.6875 -18.055 3.6875 -17.375 3.6875 C-17.375 3.0275 -17.375 2.3675 -17.375 1.6875 C-11.32549248 -1.94220451 -6.52868672 -2.53893372 0 0 Z " fill="#1C2732" transform="translate(377.375,26.3125)"/>
<path d="M0 0 C0.66 0.33 1.32 0.66 2 1 C1.34 1.66 0.68 2.32 0 3 C-0.2366118 5.66607762 -0.35229229 8.22491833 -0.37109375 10.89453125 C-0.38012222 11.6789006 -0.3891507 12.46326996 -0.39845276 13.27140808 C-0.41297328 14.93325983 -0.42184647 16.59516899 -0.42553711 18.25708008 C-0.43740787 20.79281949 -0.48654796 23.32610463 -0.53710938 25.86132812 C-0.54657668 27.47655063 -0.55381025 29.09178808 -0.55859375 30.70703125 C-0.57812607 31.46240677 -0.59765839 32.21778229 -0.61778259 32.99604797 C-0.58593308 36.73721778 -0.10420883 38.84235703 1.97070312 41.98120117 C6.09338661 44.72866005 9.17567072 44.68954948 14.02734375 44.59375 C15.32714928 44.59381042 15.32714928 44.59381042 16.6532135 44.59387207 C18.48136669 44.58852344 20.30951981 44.57096864 22.13745117 44.54199219 C24.92503713 44.50018691 27.71020062 44.50092225 30.49804688 44.5078125 C32.27866251 44.49731714 34.05926576 44.48437717 35.83984375 44.46875 C36.66814194 44.46854858 37.49644012 44.46834717 38.34983826 44.46813965 C43.30397768 44.36762226 46.65377212 43.63317678 51 41 C50.1875 42.9375 50.1875 42.9375 49 45 C46.23034049 45.92321984 44.52941098 46.13562453 41.66796875 46.16113281 C40.79696533 46.17074036 39.92596191 46.1803479 39.02856445 46.19024658 C38.09101318 46.19449646 37.15346191 46.19874634 36.1875 46.203125 C34.73960083 46.21167511 34.73960083 46.21167511 33.26245117 46.22039795 C31.22152807 46.22984285 29.18058975 46.23637991 27.13964844 46.24023438 C24.01210159 46.24996236 20.88520573 46.28099966 17.7578125 46.3125 C15.77604557 46.31902793 13.79427395 46.32427922 11.8125 46.328125 C10.87494873 46.3404718 9.93739746 46.3528186 8.97143555 46.36553955 C8.10043213 46.36253845 7.22942871 46.35953735 6.33203125 46.35644531 C5.56608643 46.36009094 4.8001416 46.36373657 4.01098633 46.36749268 C1.4442412 45.89843924 0.60215896 45.0217747 -1 43 C-3.11770143 38.20943734 -3.26563141 33.69237551 -3.1953125 28.5390625 C-3.1924826 27.74849457 -3.18965271 26.95792664 -3.18673706 26.1434021 C-3.17560955 23.63710916 -3.15051926 21.13118355 -3.125 18.625 C-3.11496058 16.91797394 -3.10583641 15.21094223 -3.09765625 13.50390625 C-3.07569463 9.3357976 -3.04121671 5.16796092 -3 1 C-2.01 0.67 -1.02 0.34 0 0 Z M-7 8 C-6.67 8 -6.34 8 -6 8 C-5.98018066 8.91289795 -5.96036133 9.8257959 -5.93994141 10.76635742 C-5.86163736 14.16782472 -5.77493775 17.56886604 -5.68261719 20.9699707 C-5.64444048 22.43928862 -5.60956818 23.90869639 -5.578125 25.37817383 C-5.53222711 27.49593114 -5.47427628 29.6130759 -5.4140625 31.73046875 C-5.3826416 33.00301514 -5.3512207 34.27556152 -5.31884766 35.58666992 C-5.01421168 38.84786098 -4.53938934 41.12231272 -3 44 C-0.47627099 45.36078035 -0.47627099 45.36078035 2 46 C2 46.66 2 47.32 2 48 C2.66 48 3.32 48 4 48 C4 48.66 4 49.32 4 50 C-0.41299538 48.79645581 -3.08112557 47.56751319 -6 44 C-7.18975795 40.43072615 -7.12478155 37.20053028 -7.09765625 33.48828125 C-7.0962413 32.76005661 -7.09482635 32.03183197 -7.09336853 31.28153992 C-7.08777659 28.95848461 -7.07522562 26.63552612 -7.0625 24.3125 C-7.05748396 22.73632952 -7.05292123 21.16015752 -7.04882812 19.58398438 C-7.0378098 15.72261902 -7.02055074 11.86132592 -7 8 Z " fill="#CE6333" transform="translate(16,21)"/>
<path d="M0 0 C0.66 0 1.32 0 2 0 C2.01458252 1.05388916 2.02916504 2.10777832 2.04418945 3.19360352 C2.10244945 7.12818213 2.17967904 11.06220493 2.26245117 14.99633789 C2.29557083 16.69448786 2.32364261 18.39274448 2.34643555 20.09106445 C2.38022169 22.54163787 2.43254639 24.99124531 2.48828125 27.44140625 C2.49467117 28.19273331 2.5010611 28.94406036 2.50764465 29.71815491 C2.67076479 35.65334604 4.35057181 39.70114363 7 45 C2.25 44.25 2.25 44.25 0 42 C-1.34269575 38.3622744 -1.11337655 34.66387884 -1.09765625 30.828125 C-1.0962413 30.1457074 -1.09482635 29.46328979 -1.09336853 28.76019287 C-1.08779084 26.59008316 -1.07524254 24.4200783 -1.0625 22.25 C-1.05748211 20.77474108 -1.05291971 19.29948053 -1.04882812 17.82421875 C-1.03782875 14.21611202 -1.02057953 10.60806625 -1 7 C-2.423125 7.2784375 -2.423125 7.2784375 -3.875 7.5625 C-7 8 -7 8 -9 7 C-8.34 5.68 -7.68 4.36 -7 3 C-4.03 3.495 -4.03 3.495 -1 4 C-0.67 2.68 -0.34 1.36 0 0 Z " fill="#EA5F20" transform="translate(11,22)"/>
<path d="M0 0 C0 0.66 0 1.32 0 2 C-1.32 2 -2.64 2 -4 2 C-4 2.66 -4 3.32 -4 4 C-9.06440925 5.00077286 -13.97619503 5.2118961 -19.1171875 5.31640625 C-19.97434357 5.33718735 -20.83149963 5.35796844 -21.71463013 5.37937927 C-24.43467714 5.44441261 -27.15481517 5.50354341 -29.875 5.5625 C-31.72657166 5.60572924 -33.57813434 5.6493449 -35.4296875 5.69335938 C-39.95303331 5.80004621 -44.47647007 5.90144194 -49 6 C-49 5.34 -49 4.68 -49 4 C-49.66 4 -50.32 4 -51 4 C-51 3.34 -51 2.68 -51 2 C-49.68805664 1.98018066 -48.37611328 1.96036133 -47.02441406 1.93994141 C-42.15638045 1.8638625 -37.28864484 1.77514836 -32.42089844 1.68261719 C-30.31418746 1.64433694 -28.20741133 1.6094824 -26.10058594 1.578125 C-23.07202879 1.53245402 -20.04391978 1.47446255 -17.015625 1.4140625 C-15.60292328 1.39673569 -15.60292328 1.39673569 -14.16168213 1.37905884 C-13.28107117 1.35918915 -12.40046021 1.33931946 -11.49316406 1.31884766 C-10.33400482 1.29886215 -10.33400482 1.29886215 -9.15142822 1.2784729 C-6.93164631 1.11565272 -6.93164631 1.11565272 -4.90667725 -0.08242798 C-3 -1 -3 -1 0 0 Z " fill="#EC5F1E" transform="translate(69,65)"/>
<path d="M0 0 C6.87014167 3.59121042 12.87384845 8.29221851 19 13 C18.34 13.66 17.68 14.32 17 15 C15.56563705 18.84425473 15.77451879 22.99401274 15.68359375 27.046875 C15.66281265 27.81807678 15.64203156 28.58927856 15.62062073 29.3838501 C15.55541428 31.83914572 15.49637516 34.29454521 15.4375 36.75 C15.39428726 38.41797935 15.3506721 40.08594832 15.30664062 41.75390625 C15.19976264 45.83583196 15.09841434 49.91786182 15 54 C14.01 54.495 14.01 54.495 13 55 C13.05760498 53.89076172 13.11520996 52.78152344 13.17456055 51.63867188 C13.37474066 47.49482145 13.50030126 43.3513893 13.60424805 39.20410156 C13.65933093 37.4149577 13.73423072 35.62630387 13.82983398 33.83886719 C14.72414486 23.22354144 14.72414486 23.22354144 10.50244141 13.99609375 C7.74166348 11.98825526 5.11217092 10.39070055 2 9 C2.66 8.67 3.32 8.34 4 8 C6.35981813 8.93578995 8.69631264 9.93347808 11 11 C9.19489116 8.90987397 7.9974669 7.99903501 5.375 7 C4.59125 6.67 3.8075 6.34 3 6 C2.67 5.01 2.34 4.02 2 3 C1.34 2.67 0.68 2.34 0 2 C0 1.34 0 0.68 0 0 Z " fill="#D6632F" transform="translate(54,7)"/>
<path d="M0 0 C1.7734375 1.3046875 1.7734375 1.3046875 3 3 C3 4.32 3 5.64 3 7 C-2.94 7 -8.88 7 -15 7 C-14 2 -14 2 -12 0.125 C-7.8936026 -1.41489902 -4.20365926 -1.24377933 0 0 Z " fill="#010408" transform="translate(376,32)"/>
<path d="M0 0 C2.5625 2.4375 2.5625 2.4375 4 5 C4 5.66 4 6.32 4 7 C-2.27 7 -8.54 7 -15 7 C-11.82991897 -0.92520257 -8.1016141 -2.48251294 0 0 Z " fill="#010308" transform="translate(263,32)"/>
<path d="M0 0 C-0.33 1.32 -0.66 2.64 -1 4 C-1.66 4 -2.32 4 -3 4 C-3.09900135 8.76881876 -3.17152928 13.5370373 -3.21972656 18.30664062 C-3.23982144 19.92849143 -3.26710254 21.55026997 -3.30175781 23.171875 C-3.3503727 25.5053898 -3.37298889 27.83794557 -3.390625 30.171875 C-3.41127014 30.89493835 -3.43191528 31.61800171 -3.45318604 32.36297607 C-3.45473063 35.84150176 -3.27508873 37.64853702 -1.10058594 40.42675781 C2.95711335 43.46578782 6.59981067 43.21648318 11.5078125 43.31640625 C12.76874222 43.3475779 12.76874222 43.3475779 14.05514526 43.37937927 C16.74501235 43.44485439 19.43497843 43.5037502 22.125 43.5625 C23.94662489 43.60568716 25.76823971 43.64930152 27.58984375 43.69335938 C32.05979394 43.80053368 36.52984386 43.90180685 41 44 C41 44.33 41 44.66 41 45 C35.39499036 45.09903517 29.79049238 45.17154712 24.18481445 45.21972656 C22.2787997 45.23981546 20.37284638 45.26709194 18.46704102 45.30175781 C15.72396674 45.35039642 12.98170875 45.37299579 10.23828125 45.390625 C9.38913651 45.41127014 8.53999176 45.43191528 7.66511536 45.45318604 C3.57333887 45.45473044 1.52792001 45.33259516 -2.01489258 43.10058594 C-5.56853155 39.34022316 -5.17580934 35.96961309 -5.203125 31.03515625 C-5.20882507 30.24604355 -5.21452515 29.45693085 -5.22039795 28.64390564 C-5.22984925 26.97363629 -5.23638245 25.30334829 -5.24023438 23.63305664 C-5.24994869 21.07600488 -5.28097332 18.51975395 -5.3125 15.96289062 C-5.31902922 14.34115061 -5.32428001 12.71940485 -5.328125 11.09765625 C-5.3404718 10.33195816 -5.3528186 9.56626007 -5.36553955 8.77735901 C-5.34333259 3.49355562 -5.34333259 3.49355562 -3.60449219 0.99389648 C-2 0 -2 0 0 0 Z " fill="#3B0F04" transform="translate(20,21)"/>
<path d="M0 0 C1.65 0 3.3 0 5 0 C2.35620619 2.9081732 -0.12699318 4.78685467 -4.11346436 5.24050903 C-4.86847229 5.23606781 -5.62348022 5.23162659 -6.40136719 5.22705078 C-7.6922525 5.22682419 -7.6922525 5.22682419 -9.00921631 5.22659302 C-9.92914368 5.21627045 -10.84907104 5.20594788 -11.796875 5.1953125 C-12.74564514 5.1924826 -13.69441528 5.18965271 -14.67193604 5.18673706 C-17.69808639 5.17555448 -20.7239393 5.1504533 -23.75 5.125 C-25.80338114 5.11496772 -27.85676692 5.1058423 -29.91015625 5.09765625 C-34.94021854 5.07562141 -39.97005886 5.04110462 -45 5 C-45 4.67 -45 4.34 -45 4 C-35.63804589 2.8746742 -26.29149375 2.67053444 -16.875 2.4375 C-15.23436615 2.3942145 -13.59374101 2.35059737 -11.953125 2.30664062 C-7.96884016 2.20060372 -3.9844643 2.09905423 0 2 C0 1.34 0 0.68 0 0 Z " fill="#D65719" transform="translate(65,67)"/>
<path d="M0 0 C0.66 0 1.32 0 2 0 C2.01458252 0.96824707 2.02916504 1.93649414 2.04418945 2.93408203 C2.10241567 6.54626324 2.17964536 10.15783683 2.26245117 13.76953125 C2.29558667 15.32900081 2.3236537 16.88858702 2.34643555 18.44824219 C2.38019281 20.69776852 2.43251504 22.94623687 2.48828125 25.1953125 C2.49467117 25.8861795 2.5010611 26.57704651 2.50764465 27.28884888 C2.64538275 31.88308542 3.68867854 35.0446536 6 39 C4.125 38.75 4.125 38.75 2 38 C-0.43269224 34.49989117 -0.23057369 31.20769552 -0.1953125 27.046875 C-0.19106766 26.05654266 -0.19106766 26.05654266 -0.18673706 25.04620361 C-0.17558415 22.94728103 -0.15048946 20.84879258 -0.125 18.75 C-0.11496384 17.32292285 -0.1058391 15.89583898 -0.09765625 14.46875 C-0.07566111 10.97902672 -0.04116536 7.48955577 0 4 C-2.31 4 -4.62 4 -7 4 C-6.67 3.01 -6.34 2.02 -6 1 C-5.38125 1.20625 -4.7625 1.4125 -4.125 1.625 C-3.073125 1.810625 -3.073125 1.810625 -2 2 C-1.34 1.34 -0.68 0.68 0 0 Z " fill="#3C1002" transform="translate(7,29)"/>
<path d="M0 0 C1.67542976 0.28604898 3.34385343 0.61781233 5 1 C4.9375 3.3125 4.9375 3.3125 4 6 C0.4375 7.8125 0.4375 7.8125 -3 9 C-3 8.34 -3 7.68 -3 7 C-9.6 6.67 -16.2 6.34 -23 6 C-23.33 5.34 -23.66 4.68 -24 4 C-23.17757812 4.03480469 -22.35515625 4.06960937 -21.5078125 4.10546875 C-14.16385908 4.28355538 -7.83850023 3.82015074 -1 1 C-0.67 0.67 -0.34 0.34 0 0 Z " fill="#D16032" transform="translate(56,43)"/>
<path d="M0 0 C0 0.66 0 1.32 0 2 C-1.32 2.33 -2.64 2.66 -4 3 C-4 3.66 -4 4.32 -4 5 C-5.32 5.33 -6.64 5.66 -8 6 C-8 6.99 -8 7.98 -8 9 C-6.35 9 -4.7 9 -3 9 C-5.68841859 11.25245881 -7.64641875 12.88213958 -11 14 C-11 13.01 -11 12.02 -11 11 C-12.97536745 11.34786708 -12.97536745 11.34786708 -15 12 C-15.33 12.66 -15.66 13.32 -16 14 C-16.99 14.33 -17.98 14.66 -19 15 C-19.33 15.66 -19.66 16.32 -20 17 C-21.875 18.1875 -21.875 18.1875 -24 19 C-24.99 18.67 -25.98 18.34 -27 18 C-26.52691406 17.66790527 -26.05382813 17.33581055 -25.56640625 16.99365234 C-23.37668509 15.45540524 -21.18833933 13.91521221 -19 12.375 C-18.25621094 11.85292969 -17.51242188 11.33085937 -16.74609375 10.79296875 C-12.29183947 7.65562443 -7.91992678 4.44642755 -3.62890625 1.08837891 C-2 -0 -2 -0 0 0 Z " fill="#CC5E2E" transform="translate(36,2)"/>
<path d="M0 0 C6.6 0 13.2 0 20 0 C18.65289578 4.04131267 16.61571666 4.90288434 13 7 C9.64906568 7 9.06650193 6.57238962 6.5 4.625 C5.9121875 4.18414063 5.324375 3.74328125 4.71875 3.2890625 C4.1515625 2.86367188 3.584375 2.43828125 3 2 C2.01 1.34 1.02 0.68 0 0 Z " fill="#060204" transform="translate(44,0)"/>
<path d="M0 0 C0.33 0.66 0.66 1.32 1 2 C1.99 2.33 2.98 2.66 4 3 C4.04241723 5.33294775 4.04092937 7.66702567 4 10 C3.67 10.33 3.34 10.66 3 11 C1.02 11 -0.96 11 -3 11 C-3.33 20.57 -3.66 30.14 -4 40 C-4.99 40.495 -4.99 40.495 -6 41 C-5.67 29.78 -5.34 18.56 -5 7 C-3.68 7.66 -2.36 8.32 -1 9 C-0.01 9 0.98 9 2 9 C2.33 7.35 2.66 5.7 3 4 C0.525 3.01 0.525 3.01 -2 2 C-1.34 1.34 -0.68 0.68 0 0 Z " fill="#451201" transform="translate(79,22)"/>
<path d="M0 0 C2.33944736 0.28730055 4.6739143 0.61936779 7 1 C7 3.31 7 5.62 7 8 C8.98 8 10.96 8 13 8 C13 8.33 13 8.66 13 9 C10.69 9 8.38 9 6 9 C5.67 7.02 5.34 5.04 5 3 C3.68 3 2.36 3 1 3 C1.020625 3.804375 1.04125 4.60875 1.0625 5.4375 C1 8 1 8 0 9 C-1.66617115 9.04063832 -3.33388095 9.042721 -5 9 C-5 10.65 -5 12.3 -5 14 C-5.66 13.67 -6.32 13.34 -7 13 C-6.67 11.35 -6.34 9.7 -6 8 C-4.35 8 -2.7 8 -1 8 C-1.020625 6.865625 -1.04125 5.73125 -1.0625 4.5625 C-1 1 -1 1 0 0 Z " fill="#141C23" transform="translate(187,18)"/>
<path d="M0 0 C10.55808656 -0.18451025 10.55808656 -0.18451025 15 1 C15 1.66 15 2.32 15 3 C11.93466836 4.53266582 8.73245728 4.10276471 5.375 4.0625 C4.66859375 4.05798828 3.9621875 4.05347656 3.234375 4.04882812 C1.48954725 4.03703875 -0.255237 4.01910324 -2 4 C-1.34 2.68 -0.68 1.36 0 0 Z " fill="#E86020" transform="translate(38,49)"/>
<path d="M0 0 C4.95 0.33 9.9 0.66 15 1 C15 1.99 15 2.98 15 4 C12.66062093 5.16968953 11.22630632 5.13364221 8.625 5.125 C7.85414063 5.12757812 7.08328125 5.13015625 6.2890625 5.1328125 C4.0671811 5.00389788 2.13381492 4.61383717 0 4 C0 2.68 0 1.36 0 0 Z " fill="#202A37" transform="translate(396,54)"/>
<path d="M0 0 C1.485 0.99 1.485 0.99 3 2 C3.31681008 4.71939816 3.444048 7.20688417 3.43359375 9.9296875 C3.4388356 10.71642853 3.44407745 11.50316956 3.44947815 12.31375122 C3.45590701 13.97982604 3.45455017 15.6459462 3.44604492 17.31201172 C3.43755476 19.85857428 3.46624844 22.4028792 3.49804688 24.94921875 C3.49965949 26.56770766 3.49908019 28.18620054 3.49609375 29.8046875 C3.50732773 30.5652243 3.51856171 31.32576111 3.53013611 32.10934448 C3.48216795 35.76022819 3.30036794 37.62846663 0.96899414 40.51220703 C0.31922607 41.00317871 -0.33054199 41.49415039 -1 42 C-0.49396008 39.83125748 -0.00016187 38.00032373 1 36 C1.09745003 33.988852 1.13076952 31.97444405 1.1328125 29.9609375 C1.13410156 28.74019531 1.13539062 27.51945312 1.13671875 26.26171875 C1.13285156 24.97910156 1.12898438 23.69648437 1.125 22.375 C1.12886719 21.11558594 1.13273437 19.85617188 1.13671875 18.55859375 C1.13013001 12.27952686 0.98467757 6.20503164 0 0 Z " fill="#401001" transform="translate(65,22)"/>
<path d="M0 0 C2.13671875 0.90234375 2.13671875 0.90234375 3.13671875 2.90234375 C-1.31828125 3.39734375 -1.31828125 3.39734375 -5.86328125 3.90234375 C-5.86328125 4.56234375 -5.86328125 5.22234375 -5.86328125 5.90234375 C-5.20328125 6.23234375 -4.54328125 6.56234375 -3.86328125 6.90234375 C-8.61328125 8.02734375 -8.61328125 8.02734375 -10.86328125 6.90234375 C-11.19328125 7.89234375 -11.52328125 8.88234375 -11.86328125 9.90234375 C-13.18328125 9.57234375 -14.50328125 9.24234375 -15.86328125 8.90234375 C-13.8129136 7.36231651 -11.75065905 5.84620055 -9.67578125 4.33984375 C-9.09763672 3.90220703 -8.51949219 3.46457031 -7.92382812 3.01367188 C-5.15354648 1.02595567 -3.46455137 -0.11816342 0 0 Z " fill="#200801" transform="translate(42.86328125,6.09765625)"/>
<path d="M0 0 C2.31 0 4.62 0 7 0 C7 0.99 7 1.98 7 3 C4.36 3.33 1.72 3.66 -1 4 C-1.66 5.65 -2.32 7.3 -3 9 C-4.65 9 -6.3 9 -8 9 C-8 8.01 -8 7.02 -8 6 C-6.68 5.67 -5.36 5.34 -4 5 C-4 4.34 -4 3.68 -4 3 C-2.68 2.67 -1.36 2.34 0 2 C0 1.34 0 0.68 0 0 Z " fill="#ED5E1C" transform="translate(36,2)"/>
<path d="M0 0 C-8.72676091 3.06074286 -16.18658513 4.61575995 -25 1 C-21.9865831 0.11532715 -19.38294847 -0.07982034 -16.25 0 C-12.95031184 0.04386587 -9.82766269 -0.08570175 -6.5625 -0.5625 C-3 -1 -3 -1 0 0 Z " fill="#2F0A01" transform="translate(55,45)"/>
<path d="M0 0 C1.32 0.33 2.64 0.66 4 1 C4 1.99 4 2.98 4 4 C5.134375 4.268125 6.26875 4.53625 7.4375 4.8125 C8.613125 5.204375 9.78875 5.59625 11 6 C11.33 6.99 11.66 7.98 12 9 C8.65626525 8.44271087 5.96687001 7.64826111 3 6 C3 5.34 3 4.68 3 4 C2.01 3.67 1.02 3.34 0 3 C0 2.01 0 1.02 0 0 Z " fill="#EB5F1D" transform="translate(53,9)"/>
<path d="M0 0 C3.62528568 -0.20140476 5.86501708 0.14223235 9 2 C9 2.99 9 3.98 9 5 C5.625 5.125 5.625 5.125 2 5 C1.34 4.34 0.68 3.68 0 3 C0 2.01 0 1.02 0 0 Z " fill="#E66026" transform="translate(22,45)"/>
<path d="M0 0 C1.67542976 0.28604898 3.34385343 0.61781233 5 1 C4.9375 3.3125 4.9375 3.3125 4 6 C0.4375 7.8125 0.4375 7.8125 -3 9 C-3 8.01 -3 7.02 -3 6 C-1.35 5.67 0.3 5.34 2 5 C2.33 4.01 2.66 3.02 3 2 C1.68 1.67 0.36 1.34 -1 1 C-0.67 0.67 -0.34 0.34 0 0 Z " fill="#BC5C32" transform="translate(56,43)"/>
<path d="M0 0 C0.33 0.66 0.66 1.32 1 2 C1.99 2.33 2.98 2.66 4 3 C4.04241723 5.33294775 4.04092937 7.66702567 4 10 C3 11 3 11 -0.0625 11.0625 C-1.031875 11.041875 -2.00125 11.02125 -3 11 C-3.33 10.01 -3.66 9.02 -4 8 C-1.03 8.495 -1.03 8.495 2 9 C2.33 7.35 2.66 5.7 3 4 C0.525 3.01 0.525 3.01 -2 2 C-1.34 1.34 -0.68 0.68 0 0 Z " fill="#2D0B04" transform="translate(79,22)"/>
<path d="M0 0 C6.40856435 0.66001826 6.40856435 0.66001826 9.5390625 3.1796875 C10.0134375 3.8190625 10.4878125 4.4584375 10.9765625 5.1171875 C9.9865625 4.8078125 8.9965625 4.4984375 7.9765625 4.1796875 C3.99925128 3.03285543 0.08888871 2.55006394 -4.0234375 2.1171875 C-2.0234375 0.1171875 -2.0234375 0.1171875 0 0 Z " fill="#CB5D2C" transform="translate(40.0234375,-0.1171875)"/>
<path d="M0 0 C2.97 0 5.94 0 9 0 C9 1.65 9 3.3 9 5 C9.66 5 10.32 5 11 5 C10.67 5.66 10.34 6.32 10 7 C9.52949219 6.66226562 9.05898438 6.32453125 8.57421875 5.9765625 C7.95160156 5.53054687 7.32898437 5.08453125 6.6875 4.625 C6.07261719 4.18414063 5.45773438 3.74328125 4.82421875 3.2890625 C3.2347608 2.16589093 1.61937829 1.07958553 0 0 Z " fill="#280701" transform="translate(44,0)"/>
<path d="M0 0 C2.475 0.495 2.475 0.495 5 1 C5 1.66 5 2.32 5 3 C6.65 3.33 8.3 3.66 10 4 C10.33 5.32 10.66 6.64 11 8 C6.99698968 6.23867546 3.3971023 3.73867517 0 1 C0 0.67 0 0.34 0 0 Z " fill="#300A03" transform="translate(61,11)"/>
<path d="M0 0 C1.37478516 0.01740234 1.37478516 0.01740234 2.77734375 0.03515625 C3.69644531 0.04417969 4.61554687 0.05320312 5.5625 0.0625 C6.27277344 0.07410156 6.98304687 0.08570313 7.71484375 0.09765625 C5.71484375 2.09765625 5.71484375 2.09765625 3.40234375 2.53515625 C0.35310743 3.1733685 -1.69798257 4.39751354 -4.28515625 6.09765625 C-3.21536826 0.1374089 -3.21536826 0.1374089 0 0 Z " fill="#D25D2B" transform="translate(37.28515625,4.90234375)"/>
<path d="M0 0 C1.65 0 3.3 0 5 0 C3.36587557 1.70840281 2.13093906 2.93453047 0 4 C-1.99960012 4.039992 -4.00047242 4.04346799 -6 4 C-6 3.34 -6 2.68 -6 2 C-4.02 2 -2.04 2 0 2 C0 1.34 0 0.68 0 0 Z " fill="#D6612E" transform="translate(65,67)"/>
<path d="M0 0 C-0.33 1.32 -0.66 2.64 -1 4 C-3.31 4 -5.62 4 -8 4 C-4.5 0 -4.5 0 0 0 Z " fill="#EB5F1E" transform="translate(59,45)"/>
<path d="M0 0 C0.66 0.33 1.32 0.66 2 1 C1.01 2.32 0.02 3.64 -1 5 C0.32 5.66 1.64 6.32 3 7 C1.125 7.625 1.125 7.625 -1 8 C-1.66 7.34 -2.32 6.68 -3 6 C-2.63318342 3.06546739 -2.13562754 2.13562754 0 0 Z " fill="#B95728" transform="translate(3,24)"/>
<path d="M0 0 C2.64 0 5.28 0 8 0 C5.31158141 2.25245881 3.35358125 3.88213958 0 5 C0 3.35 0 1.7 0 0 Z " fill="#190502" transform="translate(30,0)"/>
<path d="M0 0 C1.65 0 3.3 0 5 0 C5 1.65 5 3.3 5 5 C3.68 4.67 2.36 4.34 1 4 C0.67 2.68 0.34 1.36 0 0 Z " fill="#1C242C" transform="translate(195,53)"/>
<path d="M0 0 C1.98 0 3.96 0 6 0 C6.33 1.98 6.66 3.96 7 6 C6.01 6 5.02 6 4 6 C4 4.68 4 3.36 4 2 C2.68 1.34 1.36 0.68 0 0 Z " fill="#192126" transform="translate(294,25)"/>
<path d="M0 0 C1.32 0 2.64 0 4 0 C4 0.99 4 1.98 4 3 C2.02 3.66 0.04 4.32 -2 5 C-1.34 3.35 -0.68 1.7 0 0 Z " fill="#EB5E19" transform="translate(21,13)"/>
</svg>
